<mxfile host="app.diagrams.net" modified="2023-07-20T02:19:22.587Z" agent="Mozilla/5.0 (Windows NT 10.0; Win64; x64) AppleWebKit/537.36 (KHTML, like Gecko) Chrome/114.0.0.0 Safari/537.36" version="21.6.3" etag="uJdT-BXqkKrmqknnwUQN" type="github">
  <diagram name="Page-1" id="3sJp-w0uk-GDBXuvnPIc">
    <mxGraphModel>
      <root>
        <mxCell id="0" />
        <mxCell id="1" parent="0" />
      </root>
    </mxGraphModel>
  </diagram>
</mxfile>
